<svg width="25" height="25" viewBox="0 0 25 25" fill="none" xmlns="http://www.w3.org/2000/svg">
<path d="M12.7968 0.116533L14.0337 1.27225C14.1623 1.39414 14.3519 1.42349 14.5144 1.349L16.0469 0.631188C16.2546 0.534126 16.5006 0.615387 16.6089 0.814026L17.4282 2.29479C17.514 2.45054 17.6855 2.53632 17.8616 2.516L19.5408 2.30833C19.7665 2.28125 19.9764 2.43248 20.0193 2.65595L20.3398 4.31729C20.3737 4.4911 20.5091 4.62654 20.6829 4.6604L22.344 4.98093C22.5675 5.02382 22.721 5.23374 22.6916 5.45947L22.484 7.13887C22.4614 7.31494 22.5494 7.48649 22.7052 7.57226L24.1858 8.39165C24.3844 8.50226 24.4657 8.7483 24.3686 8.95371L23.6509 10.4864C23.5764 10.6467 23.6057 10.8363 23.7276 10.9672L24.8832 12.2042C25.0389 12.3712 25.0389 12.6285 24.8832 12.7956L23.7276 14.0325C23.6057 14.1612 23.5764 14.3508 23.6509 14.5133L24.3686 16.046C24.4657 16.2537 24.3844 16.4997 24.1858 16.6081L22.7052 17.4275C22.5494 17.5132 22.4637 17.6848 22.484 17.8609L22.6916 19.5403C22.7187 19.766 22.5675 19.9759 22.344 20.0188L20.6829 20.3393C20.5091 20.3732 20.3737 20.5086 20.3398 20.6824L20.0193 22.3438C19.9764 22.5672 19.7665 22.7207 19.5408 22.6914L17.8616 22.4837C17.6855 22.4612 17.514 22.5492 17.4282 22.7049L16.6089 24.1857C16.4983 24.3843 16.2523 24.4656 16.0469 24.3685L14.5144 23.6507C14.3542 23.5762 14.1646 23.6056 14.0337 23.7275L12.7968 24.8832C12.6298 25.0389 12.3725 25.0389 12.2055 24.8832L10.9686 23.7275C10.84 23.6056 10.6504 23.5762 10.4879 23.6507L8.95534 24.3685C8.74769 24.4656 8.50167 24.3843 8.39333 24.1857L7.57403 22.7049C7.48827 22.5492 7.31673 22.4634 7.14068 22.4837L5.46145 22.6914C5.23575 22.7185 5.02584 22.5672 4.98296 22.3438L4.66246 20.6824C4.62861 20.5086 4.49318 20.3732 4.31939 20.3393L2.65822 20.0188C2.43477 19.9759 2.28129 19.766 2.31064 19.5403L2.51828 17.8609C2.54085 17.6848 2.45283 17.5132 2.29709 17.4275L0.814224 16.6126C0.615605 16.502 0.534352 16.2559 0.631404 16.0505L1.34914 14.5179C1.42362 14.3576 1.39428 14.168 1.2724 14.0371L0.116801 12.7978C-0.0389338 12.6308 -0.0389338 12.3735 0.116801 12.2064L1.2724 10.9694C1.39428 10.8408 1.42362 10.6512 1.34914 10.4886L0.631404 8.95596C0.534352 8.7483 0.615605 8.50225 0.814224 8.39391L2.29484 7.57452C2.45057 7.48875 2.53634 7.31719 2.51603 7.14113L2.30838 5.46173C2.28129 5.236 2.43252 5.02607 2.65596 4.98319L4.31714 4.66265C4.49093 4.6288 4.62635 4.49336 4.66021 4.31955L4.9807 2.65821C5.02359 2.43474 5.23349 2.28125 5.45919 2.31059L7.13843 2.51826C7.31447 2.54083 7.48601 2.4528 7.57178 2.29705L8.39108 0.816283C8.50167 0.617644 8.74769 0.536383 8.95308 0.633445L10.4856 1.35125C10.6459 1.42574 10.8354 1.3964 10.9664 1.27451L12.2032 0.11879C12.3725 -0.0392184 12.632 -0.0392184 12.7968 0.116533Z" fill="#D8D8D8"/>
</svg>
